# xmcd
#
# Track frame offsets:
#	150
#	13542
#	25373
#	48531
#	71019
#	82849
#	109261
#	135290
#	160171
#	170872
#
# Disc length: 2464 seconds
# Revision: 1
# Processed by: cddbd v1.5.2PL0 Copyright (c) Steve Scherf et al.
# Submitted via: dBpowerAMP V12.0
#
DISCID=7d099e0a
DTITLE=Gilles Vigneault - Le Temps qu'il fait sur mon pays CD2 1973 Pays du fond de moi
DYEAR=2018
DGENRE=Folk
TTITLE0=Il me reste un pays
TTITLE1=Île de pierre
TTITLE2=Ton père est parti
TTITLE3=Maintenant
TTITLE4=Je chante pour
TTITLE5=Parlez-moi d'un peu d'amour
TTITLE6=Gros Pierre
TTITLE7=Les Voyageries
TTITLE8=Berceuse
TTITLE9=Les Cerfs-volants
EXTD=
EXTT0=
EXTT1=
EXTT2=
EXTT3=
EXTT4=
EXTT5=
EXTT6=
EXTT7=
EXTT8=
EXTT9=
PLAYORDER=
